<?xml version="1.0" standalone="no"?><!DOCTYPE svg PUBLIC "-//W3C//DTD SVG 1.1//EN" "http://www.w3.org/Graphics/SVG/1.1/DTD/svg11.dtd"><svg t="1711595414102" class="icon" viewBox="0 0 1024 1024" version="1.1" xmlns="http://www.w3.org/2000/svg" p-id="11521" width="80" height="80" xmlns:xlink="http://www.w3.org/1999/xlink"><path d="M285.91 849.86C162.45 849.86 62 749.42 62 625.95s100.45-223.91 223.91-223.91c11.6 0 23.16 0.89 34.56 2.67 52.32-96.7 154.51-158.21 265.41-158.21 166.35 0 301.68 135.33 301.68 301.68S752.23 849.86 585.88 849.86H285.91z m299.97-125.63c97.08 0 176.05-78.97 176.05-176.05s-78.98-176.05-176.05-176.05c-62.36 0-119.96 33.39-151.38 86.44 25.02 22.18 44.77 49.62 57.68 80.35 11.68 27.3 17.64 56.63 17.64 87.04 0 32.52-6.87 63.92-20.41 93.33-0.76 1.66-1.53 3.31-2.33 4.95h98.8zM285.91 527.67c-54.19 0-98.28 44.09-98.28 98.28s44.09 98.28 98.28 98.28c23.73 0 46.68-8.61 64.61-24.22 18.92-16.52 30.69-39.28 33.12-64.06 0.37-3.48 0.55-6.76 0.55-10 0-20.26-6.12-39.73-17.69-56.29-1.28-1.82-2.85-3.85-4.9-6.32-0.99-1.19-2.01-2.28-3.03-3.38l-1.63-1.77c-0.42-0.46-0.84-0.93-1.28-1.37-1.1-1.11-2.2-2.1-3.28-3.1l-0.5-0.45c-0.89-0.82-1.78-1.64-2.7-2.41-1.21-1.02-2.38-1.93-3.56-2.84-1.11-0.85-2.26-1.71-3.43-2.53-1.19-0.84-2.38-1.64-3.59-2.4-1.27-0.81-2.56-1.57-3.86-2.33-1.22-0.7-2.41-1.39-3.64-2.02-1.46-0.77-2.86-1.4-4.26-2.04l-0.92-0.42c-0.91-0.43-1.82-0.86-2.75-1.24-1.49-0.61-2.96-1.11-4.43-1.62l-2.21-0.79c-0.54-0.19-1.08-0.4-1.64-0.57-3.06-0.94-5.85-1.67-8.56-2.24-6.67-1.44-13.49-2.15-20.42-2.15z" fill="#1AADF9" p-id="11522"></path><path d="M887.56 248.57m-74.44 0a74.44 74.44 0 1 0 148.88 0 74.44 74.44 0 1 0-148.88 0Z" fill="#FF554D" p-id="11523"></path></svg>